<svg xmlns="http://www.w3.org/2000/svg" xmlns:xlink="http://www.w3.org/1999/xlink" xml:space="preserve" viewBox="0 0 348.4 139"><defs><path id="a" d="M0 0h348.4v139H0z"/></defs><clipPath id="b"><use xlink:href="#a" style="overflow:visible"/></clipPath><g style="opacity:.5;clip-path:url(#b)"><linearGradient id="c" x1="-.583" x2="177.597" y1="-1409.418" y2="-1409.418" gradientTransform="matrix(1 0 0 -1 0 -1375.418)" gradientUnits="userSpaceOnUse"><stop offset="0" style="stop-color:#e0e5f5"/><stop offset="1" style="stop-color:#f5f5f5"/></linearGradient><path d="M-.6 139.5s99.3-62.4 117.7-74c18.4-11.5 32.6-24.7 42.6-70.8 10-46.2 14.2-66.1 14.2-66.1h3.7S171.3-42 162.9-4.2s-11 53-35.2 70.3c-20 14.2-104.6 73.5-104.6 73.5H-.6z" style="fill-rule:evenodd;clip-rule:evenodd;fill:url(#c)"/><linearGradient id="d" x1="112.947" x2="234.887" y1="-1409.418" y2="-1409.418" gradientTransform="matrix(1 0 0 -1 0 -1375.418)" gradientUnits="userSpaceOnUse"><stop offset="0" style="stop-color:#e0e5f5"/><stop offset="1" style="stop-color:#f5f5f5"/></linearGradient><path d="M112.9 139.5s59.4-56.7 76.7-73.5c18.4-17.3 24.7-39.9 30.5-70.8 5.3-29.4 11.6-66.6 11.6-66.6h3.2s-5.8 35.2-11 66.6c-5.3 31-8.4 53-24.7 70.8-14.7 15.7-68.3 72.9-68.3 72.9z" style="fill-rule:evenodd;clip-rule:evenodd;fill:url(#d)"/><linearGradient id="e" x1="140.277" x2="250.127" y1="-1409.418" y2="-1409.418" gradientTransform="matrix(1 0 0 -1 0 -1375.418)" gradientUnits="userSpaceOnUse"><stop offset="0" style="stop-color:#e0e5f5"/><stop offset="1" style="stop-color:#f5f5f5"/></linearGradient><path d="M140.3 139.5s50.5-54.1 67.3-73.5c15.8-17.8 20.5-32 27.9-70.8 6.8-38.8 11-66.6 11-66.6h3.7s-5.8 35.2-11 66.6-6.8 52-22.6 70.8c-17.9 22-59.9 73.5-59.9 73.5z" style="fill-rule:evenodd;clip-rule:evenodd;fill:url(#e)"/><linearGradient id="f" x1="168.657" x2="264.847" y1="-1409.418" y2="-1409.418" gradientTransform="matrix(1 0 0 -1 0 -1375.418)" gradientUnits="userSpaceOnUse"><stop offset="0" style="stop-color:#e0e5f5"/><stop offset="1" style="stop-color:#f5f5f5"/></linearGradient><path d="M168.7 139.5s48.9-61.9 57.8-73.5c8.4-11.5 18.4-26.8 25.2-70.8 6.3-44.1 9.5-66.6 9.5-66.6h3.7s-5.8 39.9-8.9 66.6c-3.2 26.8-4.7 47.2-20.5 70.8-15.2 23.1-51 73.5-51 73.5z" style="fill-rule:evenodd;clip-rule:evenodd;fill:url(#f)"/><linearGradient id="g" x1="195.987" x2="279.037" y1="-1409.418" y2="-1409.418" gradientTransform="matrix(1 0 0 -1 0 -1375.418)" gradientUnits="userSpaceOnUse"><stop offset="0" style="stop-color:#e0e5f5"/><stop offset="1" style="stop-color:#f5f5f5"/></linearGradient><path d="M196 139.5s41.5-61.9 47.8-73.5c6.3-11.5 17.3-25.7 23.1-70.8s8.4-66.6 8.4-66.6h3.7s-4.2 37.3-7.4 66.6-7.4 49.3-19.4 70.8c-12.1 21.5-42.1 73.5-42.1 73.5z" style="fill-rule:evenodd;clip-rule:evenodd;fill:url(#g)"/><linearGradient id="h" x1="223.847" x2="292.697" y1="-1409.418" y2="-1409.418" gradientTransform="matrix(1 0 0 -1 0 -1375.418)" gradientUnits="userSpaceOnUse"><stop offset="0" style="stop-color:#e0e5f5"/><stop offset="1" style="stop-color:#f5f5f5"/></linearGradient><path d="M223.8 139.5s30-54.6 38.9-73.5c10.5-20.5 15.2-38.3 19.5-70.8 3.7-32 7.4-66.6 7.4-66.6h3.2s-3.7 32-6.8 66.6c-3.1 34.1-4.7 46.2-15.8 70.8-10 22-33.6 73.5-33.6 73.5z" style="fill-rule:evenodd;clip-rule:evenodd;fill:url(#h)"/><linearGradient id="i" x1="251.707" x2="306.887" y1="-1409.943" y2="-1409.943" gradientTransform="matrix(1 0 0 -1 0 -1375.418)" gradientUnits="userSpaceOnUse"><stop offset="0" style="stop-color:#e0e5f5"/><stop offset="1" style="stop-color:#f5f5f5"/></linearGradient><path d="M251.7 139.5s18.4-43 30.5-73.5c12.1-29.9 13.1-52.5 14.7-70.8 1.1-7.9 6.8-66.1 6.8-66.1h3.2s-2.6 34.6-5.8 66.6c-2.6 31.5-4.2 45.1-12.6 70.8S263.3 140 263.3 140z" style="fill-rule:evenodd;clip-rule:evenodd;fill:url(#i)"/><linearGradient id="j" x1="280.087" x2="322.137" y1="-1409.418" y2="-1409.418" gradientTransform="matrix(1 0 0 -1 0 -1375.418)" gradientUnits="userSpaceOnUse"><stop offset="0" style="stop-color:#e0e5f5"/><stop offset="1" style="stop-color:#f5f5f5"/></linearGradient><path d="M280.1 139.5s13.7-43.6 21.5-73.5c7.9-29.9 11-57.2 12.1-70.8s5.3-66.6 5.3-66.6h3.2s-2.1 29.9-4.7 66.6c-2.1 29.9-4.2 53.5-8.4 70.8-4.2 19.4-17.3 73.5-17.3 73.5z" style="fill-rule:evenodd;clip-rule:evenodd;fill:url(#j)"/><linearGradient id="k" x1="307.947" x2="336.317" y1="-1409.418" y2="-1409.418" gradientTransform="matrix(1 0 0 -1 0 -1375.418)" gradientUnits="userSpaceOnUse"><stop offset="0" style="stop-color:#e0e5f5"/><stop offset="1" style="stop-color:#f5f5f5"/></linearGradient><path d="M307.9 139.5s6.3-35.7 12.6-73.5c4.7-28.3 7.9-66.6 7.9-70.8s4.7-66.6 4.7-66.6h3.2s-2.1 39.9-3.7 66.6C331 23 329.4 50.3 327.9 66c-3.7 35.2-8.4 73.5-8.4 73.5z" style="fill-rule:evenodd;clip-rule:evenodd;fill:url(#k)"/><linearGradient id="l" x1="337.377" x2="348.417" y1="-1409.418" y2="-1409.418" gradientTransform="matrix(1 0 0 -1 0 -1375.418)" gradientUnits="userSpaceOnUse"><stop offset="0" style="stop-color:#e0e5f5"/><stop offset="1" style="stop-color:#f5f5f5"/></linearGradient><path d="M337.4 139.5s2.1-56.1 2.6-73.5c.5-17.3 5.2-137.5 5.2-137.5h3.2v210.9h-11z" style="fill-rule:evenodd;clip-rule:evenodd;fill:url(#l)"/><linearGradient id="m" x1="27.797" x2="191.787" y1="-1408.892" y2="-1408.892" gradientTransform="matrix(1 0 0 -1 0 -1375.418)" gradientUnits="userSpaceOnUse"><stop offset="0" style="stop-color:#e0e5f5"/><stop offset="1" style="stop-color:#f5f5f5"/></linearGradient><path d="M175-4.8c-11 50.9-29.4 62.4-41 70.8S27.8 138.9 27.8 138.9h21.6c3.1-2.6 75.7-57.7 95.7-73.5 22.6-17.3 27.9-44.6 33.1-70.8C184-31.6 191.9-72 191.9-72h-3.2c-.1.5-10.6 54-13.7 67.2" style="fill-rule:evenodd;clip-rule:evenodd;fill:url(#m)"/><linearGradient id="n" x1="56.707" x2="205.977" y1="-1409.155" y2="-1409.155" gradientTransform="matrix(1 0 0 -1 0 -1375.418)" gradientUnits="userSpaceOnUse"><stop offset="0" style="stop-color:#e0e5f5"/><stop offset="1" style="stop-color:#f5f5f5"/></linearGradient><path d="M190.2-4.8c-8.4 42-21.6 58.8-37.3 70.8-16.3 12.1-96.2 72.9-96.2 72.9h20c3.2-2.6 68.8-58.2 86.2-72.9 20-17.3 25.2-41.5 30.5-70.8 5.3-29.4 12.6-66.6 12.6-66.6h-3.2c0-.1-7.9 42.4-12.6 66.6" style="fill-rule:evenodd;clip-rule:evenodd;fill:url(#n)"/><linearGradient id="o" x1="84.037" x2="220.687" y1="-1409.678" y2="-1409.678" gradientTransform="matrix(1 0 0 -1 0 -1375.418)" gradientUnits="userSpaceOnUse"><stop offset="0" style="stop-color:#e0e5f5"/><stop offset="1" style="stop-color:#f5f5f5"/></linearGradient><path d="M205.4-4.8C197 38.7 190.2 47.6 169.7 66c-12.6 11.5-82.5 70.8-85.7 73.5h18.4s58.9-55.1 76.7-72.9c23.1-23.1 24.7-45.1 29.4-70.8s12.1-66.6 12.1-66.6h-3.2c.1-.7-8.3 48.7-12 66" style="fill-rule:evenodd;clip-rule:evenodd;fill:url(#o)"/></g></svg>